<svg xmlns="http://www.w3.org/2000/svg" viewBox="0 0 538 74" aria-label="Betterment Logo" role="img">
  <title>Betterment Logo</title>
  <path d="M489.013 23.5871C486.234 23.5506 483.488 24.2211 481.019 25.5394C478.55 26.8577 476.432 28.7834 474.853 31.1468V24.8723H463.886V67.4286H474.853V46.5996C474.853 38.5952 478.533 33.8193 484.696 33.8193C490.128 33.8193 494.015 37.5369 494.015 43.7491V67.4286H504.9V41.3701C504.904 30.2529 498.409 23.5871 489.013 23.5871Z"></path>
  <path d="M380.618 67.3975H369.05V43.7204C369.05 37.8734 365.39 33.7916 360.139 33.7916C353.585 33.7916 349.674 38.567 349.674 46.5705V67.3975H338.014V24.8588H349.674V31.146C351.351 28.7827 353.6 26.857 356.224 25.5387C358.848 24.2204 361.765 23.5502 364.718 23.5872C371.405 23.5872 376.451 26.9308 378.925 32.5689C380.68 29.7955 383.143 27.5108 386.075 25.9369C389.007 24.363 392.308 23.5535 395.657 23.5872C405.318 23.5872 411.557 30.5636 411.557 41.3727V67.4286H399.994V43.7515C399.994 37.9045 396.334 33.8228 391.079 33.8228C384.529 33.8228 380.613 38.5982 380.613 46.6017L380.618 67.3975Z"></path>
  <path d="M143.033 38.7458L140.543 37.7475L142.924 36.5319C143.203 36.3899 149.575 32.9826 149.575 24.7837C149.575 17.8626 143.423 10.8571 131.662 10.8571H103.243V67.4286H131.717C150.386 67.4286 151.329 54.6111 151.329 52.0423C151.333 42.193 143.116 38.7857 143.033 38.7458ZM114.999 20.1652H129.048C132.903 20.1652 137.055 22.4145 137.055 27.3614C137.055 32.1884 133.026 34.7173 129.048 34.7173H114.999V20.1652ZM130.888 58.1205H114.999V43.5684H130.888C136.093 43.5684 138.813 47.2685 138.813 50.9287C138.813 55.1036 135.48 58.1294 130.888 58.1294V58.1205Z"></path>
  <path d="M199.414 46.2299C199.161 32.9014 189.991 23.5857 177.106 23.5857C164.026 23.5857 154.159 33.3165 154.159 46.221C154.082 52.127 156.323 57.8338 160.414 62.1474C164.596 66.4726 170.593 68.8429 177.115 68.8429C183.637 68.8429 189.634 66.4637 193.816 62.1474C196.063 59.8026 197.763 57.0007 198.794 53.9387H188.226C186.063 57.7372 181.985 60.0405 177.115 60.0405C171.507 60.0405 166.981 56.108 165.737 50.024L165.433 48.551H199.414V46.2299ZM166.053 40.7887C166.727 38.4138 168.174 36.3234 170.171 34.84C172.169 33.3565 174.605 32.5624 177.106 32.58C182.379 32.58 186.321 35.651 187.697 40.7887H166.053Z"></path>
  <path d="M304.071 46.2299C303.826 32.9014 294.944 23.5857 282.462 23.5857C269.788 23.5857 260.23 33.3165 260.23 46.221C260.158 52.1266 262.328 57.8325 266.289 62.1474C270.34 66.4726 276.149 68.8429 282.471 68.8429C288.793 68.8429 294.597 66.4637 298.648 62.1474C300.825 59.8026 302.472 57.0007 303.471 53.9387H293.221C291.125 57.7372 287.171 60.0405 282.458 60.0405C277.026 60.0405 272.642 56.108 271.436 50.024L271.142 48.551H304.058L304.071 46.2299ZM271.752 40.7887C272.405 38.4135 273.807 36.323 275.743 34.8395C277.679 33.3561 280.04 32.5621 282.462 32.58C287.57 32.58 291.388 35.651 292.721 40.7887H271.752Z"></path>
  <path d="M458.229 46.2299C457.983 32.9014 449.1 23.5857 436.617 23.5857C423.941 23.5857 414.388 33.3165 414.388 46.221C414.313 52.126 416.482 57.8321 420.443 62.1474C424.498 66.4726 430.308 68.8429 436.626 68.8429C442.944 68.8429 448.754 66.4637 452.805 62.1474C454.982 59.8026 456.629 57.0007 457.628 53.9387H447.377C445.281 57.7372 441.331 60.0405 436.613 60.0405C431.18 60.0405 426.796 56.108 425.59 50.024L425.296 48.551H458.229V46.2299ZM425.91 40.7887C426.562 38.4135 427.964 36.3226 429.899 34.839C431.834 33.3555 434.195 32.5616 436.617 32.58C441.725 32.58 445.544 35.651 446.877 40.7887H425.91Z"></path>
  <path d="M335.186 23.6276C327.992 23.1829 321.875 26.296 318.779 32.193V24.8684H306.9V67.4286H318.779V48.9503C318.779 37.6632 326.892 31.9039 335.186 35.1371V23.6276Z"></path>
  <path d="M258.883 58.1735C257.211 58.9069 255.405 59.2878 253.578 59.2922C248.532 59.2922 245.75 56.2304 245.75 50.6685V33.6217H259.383V24.9268H245.741V6.61875L234.363 10.75V24.9268H215.035V6.61429L203.657 10.7456V52.1927C203.657 63.0848 209.315 68.8429 220.015 68.8429C224.19 68.8429 227.771 68.1699 230.929 66.7839L228.169 58.1825C226.496 58.9159 224.69 59.2967 222.864 59.3011C217.818 59.3011 215.035 56.2394 215.035 50.6774V33.6351H234.371V52.1927C234.371 63.0848 240.029 68.8429 250.733 68.8429C254.904 68.8429 258.486 68.1699 261.643 66.7839L258.883 58.1735Z"></path>
  <path d="M534.709 58.1691C533.063 58.9024 531.285 59.2832 529.486 59.2877C524.51 59.2877 521.773 56.226 521.773 50.6641V33.6173H535.202V24.9223H521.769V6.61429L510.557 10.7456V52.1927C510.557 63.0848 516.132 68.8429 526.679 68.8429C530.793 68.8429 534.322 68.1699 537.429 66.7839L534.709 58.1691Z"></path>
  <path d="M45.2571 60.232L81.2004 73.0857C87.0869 65.5936 90.5143 56.0542 90.5143 45.4144C90.5143 20.071 71.061 0.957146 45.2571 0.957146C19.4533 0.957146 0 20.071 0 45.4144C0 56.0542 3.43189 65.5805 9.31831 73.0857L45.2571 60.232Z" fill="#FFC729"></path>
</svg>
